<?xml version="1.0" encoding="utf-8"?>
<!-- Generator: Adobe Illustrator 26.4.1, SVG Export Plug-In . SVG Version: 6.00 Build 0)  -->
<svg version="1.1" id="Layer_1" xmlns="http://www.w3.org/2000/svg" xmlns:xlink="http://www.w3.org/1999/xlink" x="0px" y="0px"
	 viewBox="0 0 1999.44 1999.44" style="enable-background:new 0 0 1999.44 1999.44;" xml:space="preserve">
<style type="text/css">
	.st0{fill:#FFFFFF;}
	.st1{fill:#9B71CF;}
</style>
<g>
	<path d="M1963.34,885.5c-7.78-12.27-20.05-23.29-33.74-31.95c-13.69-8.65-28.8-14.94-42.46-17.47
		c-17.44-3.22-36.27-7.34-50.73-10.66c-7.23-1.66-13.36-3.12-17.69-4.16c-1.59-0.38-2.93-0.71-3.99-0.97
		c1.76-12.09,8.69-60.33,15.62-116.62c8.02-65.18,16.06-141.03,16.06-184.4c0-4.61-0.09-8.85-0.28-12.69l-0.09-1.7l-1.45-0.89
		c-49.15-30.25-100.26-57.63-179.16-84.92c-78.62-27.19-184.85-54.34-344.56-84.4c-20.31-51.52-31.5-84.09-43.62-109.88
		c-12.23-26.07-25.53-45.16-49.7-69.03c-24.25-23.97-64.01-54.63-105.42-79.43c-20.71-12.4-41.82-23.32-61.64-31.17
		c-19.83-7.84-38.35-12.66-54.09-12.67h-13.42c-15.74,0.01-34.26,4.83-54.09,12.67c-59.43,23.58-130.67,74.67-167.06,110.6
		c-24.17,23.87-37.46,42.96-49.7,69.03c-12.11,25.79-23.31,58.36-43.62,109.88c-159.71,30.07-265.94,57.21-344.56,84.4
		c-78.9,27.29-130.01,54.66-179.16,84.92l-1.45,0.89l-0.09,1.7c-0.19,3.84-0.28,8.09-0.28,12.69c0.01,43.37,8.04,119.22,16.06,184.4
		c6.93,56.29,13.86,104.53,15.62,116.62c-1.06,0.26-2.4,0.58-3.99,0.97c-12.98,3.13-42.25,9.99-68.42,14.82
		c-18.21,3.38-39.01,13.41-55.56,26.88c-8.26,6.75-15.45,14.36-20.64,22.55c-5.18,8.18-8.37,16.97-8.38,25.98
		c0,32.88,0,412.28,0,412.28v0.95l0.51,0.8c0.13,0.2,5.83,9.07,17.75,19.12c11.91,10.04,30.07,21.27,54.98,25.97
		c46.28,8.74,277.76,51.29,299.15,55.22c6.33,12.49,54.04,103.98,146.57,212.09c99.54,116.28,250.98,251.81,458.62,328.6l1.2,0.44
		l1.18-0.5c260.42-110.03,466.11-281.19,591.66-540.64c21.53-3.96,252.87-46.48,299.13-55.22c24.9-4.7,43.07-15.93,54.98-25.97
		c11.92-10.05,17.62-18.92,17.75-19.12l0.51-0.8v-0.95c0,0,0-94.85,0-193.81c0-98.96,0-202.03,0-218.47
		C1971.72,902.48,1968.52,893.68,1963.34,885.5z"/>
	<path class="st0" d="M1965.24,1322.77c-1.64,2.32-7.22,9.75-17.03,17.8c-11.27,9.26-28.06,19.34-50.93,23.66
		c-24.23,4.58-99.42,18.46-168.54,31.19c-34.56,6.37-67.6,12.45-92,16.93c-12.2,2.24-22.24,4.09-29.23,5.38
		c-6.99,1.29-10.92,2.01-10.93,2.01l-1.62,0.3l-0.71,1.48c-124.58,258.34-328.61,428.61-587.89,538.46
		c-205.64-76.35-355.88-210.79-454.74-326.29c-49.53-57.86-86.15-110.95-110.38-149.56c-12.12-19.3-21.13-34.99-27.12-45.83
		c-2.99-5.42-5.22-9.64-6.71-12.49c-0.74-1.43-1.29-2.51-1.66-3.24c-0.37-0.73-0.54-1.08-0.54-1.08l-0.72-1.46l-1.6-0.29
		c0,0-3.94-0.72-10.93-2.01c-48.93-9-247.36-45.49-289.78-53.5c-23.6-4.46-40.74-15.06-52-24.56c-5.63-4.74-9.78-9.21-12.51-12.46
		c-1.36-1.63-2.37-2.95-3.03-3.86c-0.16-0.22-0.3-0.42-0.42-0.59c0-10.32,0-99.74,0-192.81c0-98.96,0-202.03,0-218.47
		c0-7.43,2.66-15.07,7.37-22.51c7.05-11.15,18.66-21.69,31.73-29.94c13.05-8.27,27.56-14.26,40.17-16.58
		c35.17-6.49,75.61-16.56,75.65-16.57l2.85-0.71l-0.43-2.91c0-0.01-0.5-3.39-1.38-9.5c-3.07-21.38-10.74-76.02-17.64-134.71
		c-6.9-58.66-13.03-121.45-13.03-158.79c0-3.85,0.07-7.4,0.2-10.67c48.48-29.75,98.73-56.54,176.42-83.41
		c78.46-27.14,184.89-54.33,345.4-84.49l1.76-0.33l0.66-1.66c20.77-52.6,32.1-85.63,44.11-111.17
		c12.02-25.53,24.59-43.63,48.39-67.18c23.71-23.46,63.24-53.97,104.19-78.48c20.48-12.26,41.32-23.03,60.7-30.71
		c19.37-7.68,37.29-12.23,51.7-12.22h13.42c14.41-0.01,32.33,4.53,51.7,12.22c58.16,23,129.32,73.97,164.89,109.18
		c23.8,23.55,36.37,41.65,48.39,67.18c12.01,25.53,23.34,58.57,44.11,111.17l0.66,1.66l1.76,0.33
		c160.51,30.16,266.94,57.35,345.4,84.49c77.68,26.88,127.94,53.66,176.42,83.41c0.13,3.26,0.2,6.82,0.2,10.67
		c0.01,42.68-8,118.56-16.01,183.61c-4.01,32.53-8.01,62.38-11.02,84.1c-1.5,10.86-2.76,19.68-3.63,25.79
		c-0.88,6.11-1.38,9.49-1.38,9.5l-0.43,2.91l2.85,0.71c0.03,0.01,40.47,10.08,75.64,16.57c16.82,3.09,36.98,12.73,52.63,25.53
		c7.84,6.39,14.56,13.56,19.26,20.99c4.71,7.44,7.37,15.07,7.37,22.51C1965.24,943.38,1965.24,1301.48,1965.24,1322.77z"/>
	<g>
		<g>
			<path class="st1" d="M210.96,534.23c0,0,10.78,210.18,40.96,330.9c-123.95,24.79-141.56,30.9-151.26,33.41
				c-17.25,15.09-24.79,31.62-24.79,31.62s89.1-25.51,254.74-53.53c165.63-28.02,411.03-58.38,694.86-58.38
				s723.61,58.38,901.81,109.4c-14.37-22.28-25.69-30.99-25.69-30.99l-148.48-31.53c0,0,37.99-189.17,41.77-328.21
				c-128.27-75.99-488.81-173-756.12-173S414.68,429.68,210.96,534.23z"/>
			<path class="st0" d="M343.32,849.39l-26.19,5.68c0,0-29.1-130.6-32.34-260.48c138.51-77.07,485.58-182.16,811.09-162.76
				s577.73,133.12,623.01,162.22c0,89.46-26.05,250.42-31.62,261.02c-23.68-4.58-23.68-4.58-23.68-4.58s28.48-204.77,30.3-239.23
				c-96.81-47.94-356.12-147.82-692.06-147.82s-596.51,99.79-689.2,144.43C321.27,722.86,337.05,825.31,343.32,849.39z"/>
			<path d="M1693.22,620.16c-16.07,43.7-54.75,142.2-92.17,186.77c-32.34-79.04-53.26-102.13-82.91-116.41
				c-24.44-11.77-206.71-86.17-269.98-111.94c18.77-26.97,36.56-54.04,44.62-70.58c20.84-42.76,11.86-75.81-14.37-134.73
				c-26.23-58.92-47.07-109.58-55.69-128.27c-8.62-18.68-33.41-49.94-91.98-92.34c-42.03-30.43-88.32-49.57-111.11-57.95
				c-10.03-3.69-20.98-4.03-31.17-0.82c-27.22,8.58-81.54,30.99-132.58,70.62c-67.55,52.46-58.2,48.86-86.23,110.66
				c-28.02,61.8-49.58,111.38-64.67,150.9c-15.07,39.48-1.46,75.37,50.13,151.37c-32.47,13.78-133.83,56.67-201.39,83.96
				c-81.38,32.88-114.79,39.34-150.36,147.13c-37.44-56.35-72.85-140.26-89.19-181.31c8.85,106.94,23.23,199.43,29.15,222.15
				l-0.02,0c65.06-11.88,337.85-57.56,687.91-57.56c292.99,0,554.33,44.14,632.38,58.66C1663.6,850.5,1688.47,671.72,1693.22,620.16
				z M764.45,722.86c0,0-42.58-3.77-84.61-44.73c-83.53,24.25-128.8,50.12-139.04,62.52c-10.24,12.4-21.02,54.97-24.79,77.61
				c-17.25-24.79-19.4-58.2-19.4-68.44c-34.49,27.49-52.28,41.5-52.28,41.5s29.1-64.13,63.06-77.61
				c30.36-12.05,225.79-92.19,266.76-109c45.39,63.23,89.79,112.57,121.99,139.72C848.7,726.45,756,657.47,744.51,644.53
				c-26.59,5.03-30.18,12.22-30.18,12.22L764.45,722.86z M1452.39,722.86c-60.36-23.71-157.37-58.2-157.37-58.2
				s-49.85,44.19-79.22,50.66l50.39-63.86c0,0-10.78-9.97-24.79-15.09c-43.11,24.25-55.24,27.49-55.24,27.49
				s20.96-27.64,44.68-60.75c20.51,8.96,64.37,27.94,119.16,50.51c76.53,31.53,131.77,51.2,151.17,62.52s53.62,81.11,53.62,81.11
				S1512.75,746.57,1452.39,722.86z"/>
			<path class="st1" d="M861.64,641.66c0,0-101.32-86.95-109.94-173.18c-1.44-32.34,42.4-140.12,70.42-192.58
				s111.38-122.16,155.21-133.66c43.83-11.5,96.29,17.25,127.19,47.43c-84.07-19.4-127.55-16.89-148.39,4.31
				c-20.84,21.2-42.4,70.42-72.58,83c94.49,2.87,113.18,9.34,113.18,9.34s-61.08,25.87-106.71,39.52
				c-45.63,13.65-46.35,22.28-44.55,38.08c95.57-23.35,144.79-20.48,159.88-11.86c-19.4,16.53-42.79,24.79-77.26,26.95
				c-34.47,2.16-39.5,20.84-39.5,20.84s127.55-9.7,211.62-7.19s127.19,17.61,145.15,41.32c-29.46-17.61-66.11-29.46-180.72-21.56
				c-114.61,7.9-222.4,36.29-248.99,52.1c-26.59,15.81-26.23,37.01-15.09,70.42C811.69,568.36,861.64,641.66,861.64,641.66z"/>
			<g>
				<path class="st0" d="M1019.36,550.4c0,0,11.14-1.62,11.32,3.05c0.18,4.67-2.77,13.83-26.99,13.29
					c-24.21-0.54-26.01-3.05-31.22-18.14c-10.6,16.71-13.65,24.25-4.49,29.82c9.16,5.57,11.14,5.75,11.86,8.8
					c0.72,3.05-7.55,6.83-22.46,5.03c-14.91-1.8-21.74-14.37-34.49-24.97c-12.75-10.6-21.74-9.52-21.74-9.52s10.6,7.37,27.31,33.59
					c16.71,26.23,30,36.29,46.53,29.46c16.53-6.83,43.47-8.62,58.02,1.26c-9.52,13.29-9.52,13.29-9.52,13.29s-20.84-13.29-42.04,0
					c10.06,3.05,10.06,3.05,10.06,3.05l8.44,44.19c0,0-43.29-7.37-72.94-41.86s-49.4-67.55-61.44-114.25
					c55.87-8.98,120.54-12.93,120.54-12.93s6.65-15.45,15.72-19.4C1016.49,505.49,1017.57,513.03,1019.36,550.4z"/>
				<path class="st0" d="M1045.23,513.03l86.95,10.42c0,0-17.61,18.63-51.38,15.76C1047.03,536.33,1045.23,513.03,1045.23,513.03z"
					/>
			</g>
		</g>
		<path d="M75.87,1282.63c0,0,421.01-110.66,927.82-110.66s929.34,112.82,929.34,112.82s0.72,24.43-51.74,34.49
			s-311.86,54.61-311.86,54.61s-174.97,384.8-569.47,524.92c-239.29-100.24-408.51-253.3-566.96-526
			c-172.46-26.95-260.3-40.96-308.81-53.35C75.69,1307.06,75.38,1299.51,75.87,1282.63z"/>
		<g>
			<g>
				<path class="st0" d="M814.15,1447.92c1.17,0.77,2.61,1.26,4.37,1.26c6.85,0,9.18-6.98,7.03-11.78c0.36-0.33,0.74-0.68,1.08-1
					c13.16-12.08,21.39-20.66,27.56-26.06c3.08-2.7,5.63-4.58,7.95-5.75c2.33-1.17,4.4-1.68,6.87-1.69c4.76,0,8.76,0,11.86,0
					c0.52,3.55,3.08,6.75,7.72,6.75c10.43,0,10.45-16.21,0-16.21c-3.66,0-6,2.01-7.1,4.59c-3.18,0-7.4,0-12.48,0
					c-3.19-0.01-6.17,0.74-9.06,2.21c-4.34,2.21-8.54,5.89-14.16,11.21c-5.61,5.33-12.64,12.36-22.44,21.35
					c-0.36,0.33-0.74,0.68-1.11,1.02c-1.04-0.53-2.27-0.87-3.71-0.87c-6.52,0-8.97,6.33-7.34,11.07
					c-20.42,18.93-46.43,43.36-57.92,54.18c-1.18-0.79-2.64-1.3-4.44-1.3c-2.19,0-3.89,0.74-5.16,1.87
					c-1.07-0.36-2.24-0.58-3.48-0.58c-3.54,0-7.34,1.73-11.36,5.6c-4.44,4.26-12.7,11.72-19.83,18.08c-2.55,2.28-4.94,4.4-6.98,6.21
					c-1.19-0.84-2.7-1.37-4.56-1.37c-10.43,0-10.45,16.21,0,16.21c6.42,0,8.88-6.14,7.39-10.86c7.7-6.83,21.08-18.77,27.34-24.77
					c3.51-3.35,6.1-4.25,7.99-4.25c0.35,0,0.68,0.11,1.01,0.16c-0.89,4.55,1.64,9.89,7.63,9.89c6.48,0,8.93-6.25,7.36-10.99
					c0.82-0.77,1.69-1.59,2.67-2.51C771.17,1488.05,795.07,1465.62,814.15,1447.92z"/>
				<path class="st0" d="M912.93,1441.97c0,0,0-5.57,0-15.09c0-2.37,0.01-4.09,0.12-5.35c0.02-0.25,0.06-0.44,0.08-0.66
					c2.15,0.57,4.53,0.06,6.23-1.61l12.23-11.97c2.64-2.58,2.61-6.83-0.06-9.37l-0.13-0.13c-2.56-2.44-6.6-2.39-9.1,0.11l-12.1,12.1
					c-2.01,2.01-2.41,5-1.24,7.43c-0.18,0.47-0.33,0.96-0.44,1.47c-0.47,2.13-0.46,4.41-0.47,7.99c0,7.3,0,12.25,0,14.18l-7.02,8.01
					c-1.2-0.84-2.7-1.37-4.56-1.37c-4.35,0-6.86,2.82-7.58,6.1l-19.83-0.64l-27.56,22.36c-0.85-0.31-1.79-0.52-2.87-0.52
					c-10.43,0-10.45,16.21,0,16.21c7.21,0,9.44-7.74,6.68-12.52l25.41-20.61l18.39,0.59c0.95,2.9,3.4,5.23,7.37,5.23
					c6.36,0,8.83-6.03,7.43-10.73l9.02-10.29V1441.97z"/>
				<path class="st0" d="M811.07,1515.45c7.32-2.77,6.36-15.66-2.97-15.66c-9.75,0-10.4,14.17-1.89,16.01v5.24l-15.39,14.47
					c-0.85-0.3-1.78-0.51-2.84-0.51c-10.43,0-10.45,16.21,0,16.21c7.24,0,9.45-7.81,6.63-12.59l16.46-15.48V1515.45z"/>
				<path class="st0" d="M816.68,1543.11l7.32,0.6c0.1,3.97,2.69,7.86,7.81,7.86c6.72,0,9.09-6.73,7.15-11.51l59.17-54.76
					c1.05,0.55,2.29,0.89,3.75,0.89c6.54,0,8.98-6.37,7.32-11.13l30.78-28.49c2.44,1.29,5.51,0.95,7.59-1.08l12.23-11.97
					c2.64-2.58,2.61-6.83-0.06-9.37l-0.13-0.13c-2.56-2.44-6.6-2.39-9.1,0.11l-12.1,12.1c-1.79,1.79-2.29,4.36-1.56,6.61
					l-30.64,28.36c-1.16-0.75-2.58-1.23-4.32-1.23c-6.83,0-9.17,6.95-7.04,11.75l-59.06,54.66c-1.1-0.62-2.4-1.02-3.96-1.02
					c-3.16,0-5.34,1.49-6.59,3.56l-10.26-0.85l-31.64,28.98c-1.02-0.5-2.21-0.8-3.6-0.8c-10.43,0-10.45,16.21,0,16.21
					c6.91,0,9.22-7.1,6.97-11.9L816.68,1543.11z"/>
				<path class="st0" d="M843.24,1356.7c9.58,6.25,20.46,9.18,31.83,9.17c0.75,0,1.51-0.09,2.27-0.11l0,0.06
					c0.41,0.03,35.67,2.11,100.82,64.43l3.36-3.51c-43.83-41.95-74.63-57.16-90.81-62.66c7.35-1.59,14.77-4.25,22.15-7.86
					l72.81,65.29l3.25-3.62l-71.41-64.03c4.4-2.4,8.77-5.12,13.08-8.17c2.19-1.55,4.21-3.17,6.08-4.84l92.1,84.68l3.29-3.58
					l-91.9-84.5c4.49-4.72,7.83-9.79,10.11-15.05c0.46,2.21,1.04,4.5,1.79,6.85c2.76,8.68,7.71,18.03,16.37,25.9
					c11.58,10.53,28.76,26.31,43.04,39.45c7.14,6.57,13.56,12.48,18.19,16.75c4.63,4.27,7.47,6.89,7.48,6.9l3.3-3.57
					c0,0-45.54-42.04-68.73-63.12c-7.92-7.2-12.44-15.73-15.01-23.78c-2.05-6.44-2.82-12.54-3.05-17.34
					c0.29-2.11,0.45-4.23,0.45-6.35c0-12.61-5.04-24.96-13.51-35.05c-18.32-21.78-47.1-33.99-47.25-34.09l-1.14-0.49l-9.91,5.89
					l1.41,2.13c0.01,0.02,15.26,22.98,21.8,31.89c1.45,1.98,2.15,4.16,2.16,6.64c0.01,3.33-1.36,7.28-4.39,11.49
					c-3.02,4.21-7.69,8.64-14.05,12.9c-9.98,6.7-21.82,9.48-30.65,9.47c-3.16,0-5.92-0.35-8.01-0.95c-2.1-0.58-3.44-1.46-3.89-2.07
					c-1.1-1.39-3.19-4.29-5.65-7.79c-3.7-5.25-8.28-11.9-11.94-17.22c-3.65-5.33-6.37-9.33-6.38-9.34l-1.03-1.52l-1.75,0.58
					c0,0,0,0-4.85,1.62l-1.27,0.42l-0.32,1.3c-2.06,8.26-3.02,15.76-3.02,22.61c-0.01,12.77,3.4,23.31,9.24,32.11
					C825.53,1343.43,833.73,1350.5,843.24,1356.7z M877.34,1365.82L877.34,1365.82l0-0.06c0,0,0,0,0,0L877.34,1365.82z
					 M817.9,1282.34c0.75-0.25,1.34-0.45,1.8-0.6c1.7,2.5,5.31,7.79,9.26,13.52c2.72,3.95,5.59,8.08,8.07,11.6
					c2.49,3.53,4.57,6.42,5.81,7.99c1.5,1.87,3.72,2.96,6.37,3.74c2.66,0.76,5.82,1.14,9.34,1.14c9.79-0.01,22.41-2.97,33.36-10.29
					c6.74-4.52,11.83-9.3,15.29-14.1c3.45-4.8,5.3-9.67,5.3-14.33c0.01-3.45-1.05-6.74-3.1-9.52c-3.18-4.33-8.62-12.29-13.24-19.12
					c-2.31-3.42-4.42-6.57-5.95-8.86c-0.4-0.6-0.75-1.13-1.07-1.6l3.37-2c5.39,2.46,29.15,14.11,44.32,32.24
					c6.96,8.3,11.31,18.16,12.19,28.18c-0.1,0.86-0.35,3.26-0.35,6.75c0,0.94,0.03,1.97,0.07,3.05
					c-1.66,11.3-8.06,22.39-20.98,31.59c-17.54,12.46-35.98,19.3-52.7,19.29c-10.55,0-20.42-2.68-29.17-8.38
					c-9.18-5.98-16.83-12.65-22.16-20.7c-5.33-8.06-8.42-17.51-8.43-29.43C815.3,1296.45,816.15,1289.75,817.9,1282.34z"/>
				<polygon class="st0" points="1067.03,1444.66 1067.03,1444.66 1067.03,1444.66 				"/>
				<polygon class="st0" points="1055.97,1497.19 1055.97,1497.19 1055.97,1497.19 				"/>
				<path class="st0" d="M1247.36,1549.13c-12.34-11.27-30.72-16.37-48.56-16.38c-0.11,0-0.22,0.01-0.32,0.01
					c-3.14-0.32-9.11-1.12-16.18-3.01c-9.28-2.48-20.39-6.87-29.33-14.37c-9.9-8.29-30.59-26.89-48.77-43.39
					c-9.09-8.25-17.56-15.98-23.76-21.64c-6.2-5.67-10.11-9.26-10.12-9.27l-3.29,3.58c0,0,15.7,14.42,33.9,30.93
					c18.2,16.52,38.87,35.1,48.91,43.51c9.84,8.24,21.67,12.79,31.44,15.38c-6.34,1.28-12.32,3.25-17.59,5.95l-100.92-91.55
					l-3.27,3.6l99.75,90.49c-1.51,0.97-2.94,2.01-4.28,3.12c-4.22,3.51-8.03,7.24-11.4,11.15l-76.48-69.91l-3.28,3.59l76.7,70.11
					c-1.69,2.22-3.28,4.48-4.65,6.81c-0.41,0.69-0.78,1.4-1.16,2.1c-0.31-1.84-0.82-3.63-1.61-5.36c-1.41-3.09-3.63-5.95-6.74-8.73
					c-3.86-3.46-20.66-19.04-36.45-33.72c-7.9-7.34-15.55-14.47-21.23-19.75c-5.68-5.29-9.37-8.73-9.38-8.74l-3.31,3.56
					c0,0,14.82,13.81,30.62,28.5c15.81,14.69,32.56,30.23,36.51,33.78c2.74,2.46,4.48,4.77,5.56,7.13c1.08,2.37,1.54,4.84,1.55,7.79
					c0,1.98-0.22,4.17-0.61,6.6l0.6,0.1c-1.07,3.9-1.66,7.89-1.66,11.96c0,6.03,1.25,12.21,3.91,18.39
					c2.69,6.23,7.28,11.94,12.71,17.07c8.15,7.7,18.24,14.12,26.99,18.73c4.38,2.3,8.42,4.14,11.75,5.44
					c1.66,0.65,3.15,1.17,4.42,1.55c1.29,0.38,2.33,0.62,3.3,0.7l1.01,0.08l0.77-0.66c4.04-3.5,4.04-3.5,4.04-3.5l1.79-1.55
					l-1.51-1.83c0,0-0.69-0.84-1.86-2.31c-3.51-4.39-11.26-14.37-16.81-23.3c-2.98-4.78-4.63-8.87-4.62-12.65
					c0.01-2.76,0.82-5.51,2.91-8.66c2.09-3.14,5.5-6.62,10.56-10.51c9.65-7.45,21.58-11.63,31.07-11.61c3.5,0,6.65,0.56,9.24,1.64
					c2.59,1.09,4.61,2.67,6.04,4.8c8.12,12.19,20.25,29.03,20.26,29.05l1.45,2.01l7.59-5.7l0.17-0.93
					c0.02-0.11,1.06-5.68,1.07-13.76c0-6.53-0.68-14.71-3.19-22.98C1259.1,1564.3,1254.74,1555.9,1247.36,1549.13z M1238.31,1582.18
					c-2.01-3.02-4.88-5.2-8.2-6.59c-3.33-1.39-7.11-2.02-11.12-2.02c-10.86,0.02-23.54,4.57-34.03,12.62
					c-5.32,4.1-9.12,7.89-11.64,11.66c-2.52,3.76-3.73,7.57-3.73,11.36c0.01,5.22,2.18,10.12,5.35,15.22
					c6.01,9.65,14.24,20.15,17.56,24.29c-0.37,0.32-0.86,0.74-1.4,1.22c-0.65-0.14-1.52-0.38-2.56-0.73
					c-5.97-1.99-16.97-7.12-27.36-14.18c-10.43-7.04-20.24-16.11-24.24-25.5c-2.42-5.62-3.52-11.11-3.52-16.47
					c0-7.85,2.36-15.47,6.64-22.75c4.27-7.28,10.46-14.18,18.03-20.47c9.28-7.76,24.52-12.13,40.23-12.2
					c1.39,0.13,2.25,0.18,2.29,0.19l0.01-0.14c16.35,0.33,32.84,5.26,43.47,15.04c6.6,6.05,10.56,13.6,12.88,21.26
					c2.32,7.65,2.98,15.38,2.98,21.57c0,3.83-0.25,7.07-0.5,9.35c-0.12,1.13-0.24,2.01-0.34,2.61l-2.08,1.56
					c-0.18-0.26-0.36-0.5-0.57-0.8C1252.67,1602.97,1244.34,1591.23,1238.31,1582.18z"/>
				<path class="st0" d="M888.46,1639.73c8.3-7.85,24.43-22.23,40.91-37.01c16.49-14.78,33.33-29.96,43.19-39.54
					c9.9-9.62,15.96-17.33,20.91-24.45c4.96-7.12,8.79-13.59,14.36-20.92c4.11-5.41,9.5-8.41,14.64-10.09
					c5.13-1.67,9.96-1.97,12.64-1.97c0.71,0,1.27,0.02,1.64,0.04l0.42,0.03l0.11,0.01l1.12,0.11l27.24-26.44l-22.05-20.94
					c8.73-7.92,45.61-41.39,83.04-75.41c21.43-19.47,43.03-39.12,59.64-54.27c8.3-7.57,15.36-14.02,20.52-18.75
					c2.58-2.37,4.69-4.31,6.24-5.75c1.56-1.45,2.54-2.36,2.97-2.79c2.62-2.62,6.35-5.12,9.39-6.9c1.52-0.89,2.88-1.61,3.84-2.11
					c0.48-0.25,0.87-0.44,1.13-0.56l0.39-0.19l-0.55-1.18c1.33-0.13,2.64-0.68,3.66-1.68l31.66-31.05c1.23-1.2,1.85-2.81,1.84-4.39
					c0-1.72-0.73-3.47-2.17-4.68l-12.49-10.62c-1.14-0.97-2.57-1.47-3.98-1.46c-1.38,0-2.78,0.47-3.91,1.41l-34.21,28.2
					c-1.46,1.2-2.22,2.96-2.21,4.69c0,0.4,0.04,0.81,0.12,1.21l-182.91,169.22l-23.67-22.48l-1.64,1.24
					c-0.1,0.07-8.97,6.78-29.15,26.24l-0.72,0.69l-0.03,1c-0.09,3.47-0.24,6.44-0.68,9.05c-0.69,3.91-1.94,6.98-4.82,10.27
					c-2.89,3.28-7.54,6.73-14.96,10.77c-10,5.45-16.59,8.59-23.19,12.4c-6.59,3.82-13.08,8.29-22.66,16.24
					c-9.63,8-27.8,24.82-46.22,41.83c-18.4,16.99-37.06,34.16-47.36,42.59c-2.72,2.23-4.73,4.69-6.04,7.32
					c-1.31,2.63-1.91,5.42-1.91,8.2c0.01,4.42,1.45,8.8,3.7,13.04c6.77,12.67,20.91,24.61,30.51,32.18
					c5.81,4.57,11.72,6.71,17.57,6.69c5.97,0,11.71-2.16,17.31-5.57C877.26,1649.79,882.79,1645.09,888.46,1639.73z
					 M1046.07,1467.64l-12.93,13.96c-0.67,0.72-1.57,1.08-2.49,1.09c-0.76,0-1.5-0.25-2.13-0.76l-4.25-3.44
					c-0.84-0.68-1.25-1.64-1.26-2.64c0-0.83,0.29-1.63,0.9-2.29l13.25-14.38L1046.07,1467.64z M1213.7,1270.13l34.21-28.2
					c0.24-0.2,0.52-0.29,0.82-0.29c0.3,0,0.59,0.1,0.83,0.31l12.49,10.62c0.31,0.26,0.45,0.61,0.45,0.98c0,0.34-0.12,0.66-0.39,0.92
					l-31.66,31.05c-0.24,0.23-0.54,0.34-0.85,0.35c-0.3,0-0.57-0.1-0.81-0.31l-15.14-13.58l-1.55,1.73l0,0l1.55-1.73
					c-0.28-0.25-0.4-0.56-0.4-0.9C1213.26,1270.71,1213.4,1270.38,1213.7,1270.13z M1211.27,1276.36l14.19,12.72
					c-0.76,0.41-1.61,0.88-2.53,1.42c-3.24,1.91-7.24,4.53-10.37,7.65c-0.29,0.29-1.3,1.24-2.84,2.66
					c-11.6,10.75-54.46,49.73-94.39,86.02c-19.97,18.14-39.21,35.61-53.46,48.55c-7.12,6.47-13,11.8-17.1,15.52
					c-2.05,1.86-3.65,3.31-4.74,4.3l-10.9-10.34L1211.27,1276.36z M1022.03,1444.81l-16.86,15.6l-0.67,0.26l-0.7-0.29l-6.68-6.69
					l-0.29-0.7l0.28-0.69l15.84-16.11L1022.03,1444.81z M854.35,1653.92c-4.67-0.01-9.39-1.61-14.56-5.66
					c-6.29-4.94-14.52-11.82-21.08-19.28c-3.28-3.72-6.14-7.59-8.14-11.36c-2.01-3.78-3.14-7.43-3.13-10.76
					c0-2.11,0.43-4.09,1.4-6.03c0.97-1.94,2.49-3.86,4.77-5.72c10.53-8.63,29.16-25.78,47.58-42.78
					c18.41-16.99,36.62-33.85,46.03-41.66c9.46-7.85,15.64-12.09,22-15.78c6.35-3.68,12.97-6.83,23.07-12.34
					c10.21-5.57,15.97-10.32,19.21-15.84c1.61-2.75,2.52-5.62,3.04-8.64c0.47-2.72,0.61-5.61,0.71-8.73
					c9.66-9.29,16.65-15.58,21.21-19.54c2.34-2.03,4.05-3.45,5.17-4.36c0.01,0,0.01-0.01,0.01-0.01l7.82,7.42l-15.78,16.05
					c-1.11,1.13-1.68,2.63-1.68,4.1c0,1.49,0.58,3,1.71,4.13l6.68,6.69c1.13,1.14,2.64,1.72,4.14,1.71c1.42,0,2.85-0.52,3.97-1.55
					l17.09-15.81l8.07,7.66l-13.3,14.43c-1.46,1.58-2.19,3.6-2.18,5.59c0,2.38,1.04,4.78,3.05,6.41l4.25,3.44
					c1.52,1.23,3.37,1.84,5.19,1.84c2.22,0,4.44-0.9,6.05-2.64l12.9-13.92l9.01,8.55l-22.03,21.39c-0.41-0.02-0.88-0.03-1.48-0.03
					c-3.03,0-8.33,0.32-14.15,2.21c-5.8,1.89-12.16,5.39-17,11.77c-5.75,7.58-9.64,14.14-14.47,21.08
					c-4.84,6.94-10.63,14.32-20.31,23.74c-9.73,9.46-26.57,24.64-43.04,39.41c-16.48,14.78-32.6,29.14-41.01,37.1
					c-5.55,5.25-10.87,9.74-15.99,12.87C863.99,1652.19,859.11,1653.93,854.35,1653.92z"/>
				<path class="st0" d="M962.35,1547.15c0-1.76-0.68-3.55-2.03-4.9l-5.54-5.54c-1.35-1.35-3.13-2.03-4.9-2.03
					c-1.66,0-3.35,0.6-4.67,1.81l-92.65,84.44c-1.5,1.36-2.27,3.26-2.26,5.13c0,1.78,0.69,3.58,2.06,4.94l1.71-1.73l-1.71,1.73
					l7.18,7.08c1.34,1.33,3.12,2,4.87,2c1.7,0,3.43-0.63,4.76-1.89l91.02-85.99C961.62,1550.83,962.35,1548.98,962.35,1547.15z
					 M956.84,1548.66l-91.02,85.99c-0.41,0.38-0.91,0.56-1.42,0.57c-0.53,0-1.05-0.2-1.46-0.6l-7.18-7.08l0,0
					c-0.42-0.42-0.61-0.93-0.62-1.47c0-0.57,0.22-1.11,0.68-1.53l92.66-84.45c0.4-0.37,0.89-0.54,1.4-0.54
					c0.54,0,1.06,0.2,1.47,0.61l5.54,5.54c0.41,0.41,0.6,0.93,0.61,1.46C957.48,1547.71,957.28,1548.24,956.84,1548.66z"/>
				<path class="st0" d="M937.56,1523.78c0-1.76-0.68-3.55-2.03-4.9l-5.54-5.54c-1.35-1.35-3.13-2.03-4.9-2.03
					c-1.66,0-3.35,0.6-4.67,1.81l-92.65,84.44c-1.5,1.36-2.27,3.26-2.26,5.13c0,1.78,0.69,3.58,2.06,4.94l1.71-1.73l-1.71,1.73
					l7.18,7.08c1.34,1.33,3.12,2,4.87,2c1.7,0,3.43-0.63,4.76-1.89l91.02-85.99C936.83,1527.47,937.56,1525.61,937.56,1523.78z
					 M932.05,1525.29l-91.02,85.99c-0.41,0.38-0.91,0.56-1.42,0.57c-0.53,0-1.05-0.2-1.46-0.6l-7.18-7.08l0,0
					c-0.42-0.42-0.61-0.93-0.62-1.47c0-0.57,0.22-1.11,0.68-1.53l92.66-84.45c0.4-0.37,0.89-0.54,1.4-0.54
					c0.54,0,1.06,0.2,1.47,0.61l5.54,5.54c0.41,0.41,0.6,0.93,0.61,1.46C932.69,1524.34,932.48,1524.88,932.05,1525.29z"/>
				<path class="st0" d="M1193.37,1466.59c1.3,1.61,3.29,2.7,5.99,2.7c4.15,0,6.63-2.58,7.47-5.67c2.13,0,4.54,0,6.81,0
					c1.93,0.04,3.68-0.68,4.75-1.73c0.81-0.77,1.29-1.57,1.69-2.21c0.61-0.99,1.02-1.61,1.65-2.05c0.62-0.43,1.64-0.87,3.9-0.88
					c2.4,0,4.42,0.24,6.56,0.24c2.76,0.03,5.77-0.53,8.93-2.65c2.38-1.57,4.91-3.91,8-7.44c1.23,0.96,2.84,1.56,4.84,1.56
					c10.43,0,10.45-16.21,0-16.21c-6.18,0-8.67,5.68-7.53,10.31c-3.39,4-5.96,6.4-7.98,7.72c-2.46,1.58-4.01,1.82-6.26,1.85
					c-1.73,0.01-3.86-0.24-6.56-0.24c-2.58,0-4.59,0.49-6.14,1.41c-1.16,0.68-1.99,1.57-2.58,2.37c-0.87,1.22-1.35,2.18-1.73,2.56
					l-0.48,0.37c-0.18,0.08-0.48,0.17-1.05,0.17c-2.26,0-4.68,0-6.81,0c-0.84-3.09-3.32-5.67-7.48-5.67c-5.36,0-7.95,4.28-7.8,8.44
					l-16.01,15.99l-1.32,7.04c-2.27-0.77-4.88-0.26-6.68,1.55l-12.1,12.1c-2.54,2.54-2.54,6.67,0,9.21
					c2.52,2.52,6.61,2.55,9.16,0.05l12.23-11.97c1.87-1.83,2.37-4.5,1.56-6.81l1.65-8.79L1193.37,1466.59z"/>
				<path class="st0" d="M1018.43,1601.97l10.95,6.29l15.74-14.24l19.4-0.72l0.66-0.59c0,0,0,0,7.19-6.47
					c3.05-2.75,6.87-6.61,10.35-10.24c2.5,1.64,5.89,1.38,8.11-0.8l12.23-11.97c2.64-2.58,2.61-6.83-0.06-9.37l-0.13-0.13
					c-2.56-2.44-6.6-2.39-9.1,0.11l-12.1,12.1c-1.62,1.62-2.2,3.88-1.75,5.96c-3.62,3.8-7.72,7.96-10.8,10.73
					c-4.01,3.61-5.75,5.17-6.53,5.88l-19.41,0.72l-14.44,13.06l-10.96-6.29l-62.3,56.69c-1.17-0.77-2.61-1.27-4.38-1.27
					c-4.88,0-7.45,3.55-7.76,7.33l-18.56,1.09l-22.53,20.4c-1.02-0.5-2.21-0.8-3.6-0.8c-10.43,0-10.45,16.21,0,16.21
					c6.91,0,9.22-7.1,6.97-11.9l21.15-19.15l17.47-1.03c1.18,2.32,3.46,4.06,6.86,4.06c6.51,0,8.96-6.31,7.34-11.06L1018.43,1601.97
					z"/>
				<path class="st0" d="M1035.8,1309.12c2.1,2.35,3.13,5.26,3.13,8.19c0,3.21-1.24,6.4-3.72,8.81l-17.44,16.97
					c-2.5-1.45-5.74-1.12-7.86,1.01l-12.1,12.1c-2.54,2.54-2.54,6.67,0,9.21v0c2.52,2.52,6.61,2.55,9.16,0.05l12.23-11.97
					c1.81-1.78,2.34-4.34,1.63-6.59l17.77-17.29c3.44-3.35,5.19-7.82,5.19-12.29c0-4.07-1.45-8.17-4.37-11.43l-6.96-7.77
					c-2.08-2.33-3.13-5.25-3.13-8.2c0-2.68,0.87-5.35,2.62-7.58l3.07-3.91c1.23,0.95,2.83,1.54,4.82,1.54
					c10.43,0,10.45-16.21,0-16.21c-6.15,0-8.65,5.64-7.54,10.26l-4.17,5.32c-2.44,3.11-3.66,6.86-3.66,10.58
					c0,4.1,1.47,8.2,4.37,11.44L1035.8,1309.12z"/>
				<path class="st0" d="M866.52,1432.99c1.49-0.34,3.22-0.48,4.98-0.48c1.02,0,2.03,0.06,3.03,0.14c0.72,3.29,3.23,6.12,7.59,6.12
					c10.43,0,10.45-16.21,0-16.21c-3.96,0-6.41,2.34-7.36,5.23c-1.06-0.08-2.14-0.14-3.25-0.14c-2.01,0-4.08,0.16-6.06,0.6
					c-1.97,0.45-3.89,1.19-5.51,2.48c-3.99,3.19-10.18,8.74-14.32,12.51c-0.89-0.34-1.88-0.57-3.03-0.57
					c-10.43,0-10.45,16.21,0,16.21c7.16,0,9.41-7.65,6.73-12.44c4.11-3.73,9.97-8.97,13.65-11.91
					C863.8,1433.86,865.02,1433.33,866.52,1432.99z"/>
				<path class="st0" d="M1264.04,1463.87c-6.4,0-8.86,6.09-7.41,10.8c-0.85,0.92-1.75,1.89-2.67,2.85
					c-2.21,2.33-4.49,4.61-5.9,5.79c-0.98,0.82-1.68,1.42-2.2,1.79c-0.81,0.56-1.04,0.66-1.9,0.83c-0.86,0.15-2.38,0.18-4.91,0.18
					c-0.52,0-1.08,0-1.69,0c-2.17,0-3.79,0.05-5.23,0.27c-2.14,0.28-3.91,1.15-5.35,2.37c-1.47,1.2-2.85,2.67-5.31,4.84
					c-1.44,1.27-2.6,2.2-3.6,2.86c-1.51,0.99-2.62,1.42-4.32,1.72c-1.7,0.29-4.01,0.34-7.44,0.34c-1.24,0-2.63-0.01-4.19-0.01
					c-3.07,0-5.38-0.07-7.29-0.07c-1.51,0-2.78,0.04-4,0.23c-0.56,0.08-1.07,0.29-1.6,0.46c-2.53-1.64-5.93-1.35-8.14,0.86
					l-12.1,12.1c-2.54,2.54-2.54,6.67,0,9.21c2.52,2.52,6.61,2.55,9.16,0.05l12.23-11.97c1.64-1.61,2.25-3.87,1.83-5.96
					c0.7-0.07,1.52-0.11,2.62-0.11c1.79,0,4.15,0.07,7.29,0.07c1.55,0,2.93,0.01,4.19,0.01c4.6-0.01,7.56-0.05,10.42-0.92
					c1.41-0.44,2.73-1.09,4.02-1.95c1.3-0.86,2.6-1.93,4.12-3.27c3.45-3.06,5-4.79,6.11-5.39c0.56-0.32,1.07-0.51,2.06-0.67
					c0.99-0.15,2.43-0.22,4.51-0.21c0.6,0,1.17,0,1.69,0c1.7,0,2.99-0.01,4.11-0.07c1.64-0.09,3.08-0.38,4.36-1.1
					c1.27-0.7,2.22-1.57,3.67-2.77c2.24-1.88,5.48-5.27,8.32-8.32c1.19,0.83,2.69,1.35,4.53,1.35
					C1274.47,1480.08,1274.48,1463.87,1264.04,1463.87z"/>
				<path class="st0" d="M1059.96,1337.08c6.58,0,9.01-6.45,7.28-11.21l9.79-8.47l14.24,0l7.41-6.88c1.11,0.64,2.43,1.05,4.03,1.05
					c10.43,0,10.45-16.21,0-16.21c-6.69,0-9.07,6.66-7.18,11.44l-6.17,5.73h-14.14l-11.01,9.53c-1.15-0.72-2.55-1.19-4.25-1.19
					C1049.53,1320.87,1049.52,1337.08,1059.96,1337.08z"/>
				<path class="st0" d="M987.39,1570.94c-10.43,0-10.45,16.21,0,16.21c6.8,0,9.14-6.88,7.07-11.67l3.64-3.6
					c1.17,0.77,2.61,1.26,4.37,1.26c10.43,0,10.45-16.21,0-16.21c-6.51,0-8.96,6.31-7.35,11.05l-3.93,3.88
					C990.13,1571.29,988.88,1570.94,987.39,1570.94z"/>
				<path class="st0" d="M1065.35,1657.52c-6.81,0-9.15,6.9-7.07,11.69l-11.35,9.38c-1.08-0.58-2.35-0.96-3.86-0.96
					c-10.43,0-10.45,16.21,0,16.21c6.77,0,9.13-6.83,7.1-11.62l11.38-9.42c1.06,0.56,2.31,0.91,3.79,0.91
					C1075.78,1673.73,1075.8,1657.52,1065.35,1657.52z"/>
				<path class="st0" d="M873.59,1700v-15.38l33.05-31.98v-13.96l9.68-9.25h10.49c0.33,3.76,2.89,7.29,7.76,7.29
					c10.43,0,10.45-16.21,0-16.21c-3.4,0-5.67,1.73-6.86,4.06l-13.34,0l-12.59,12.03v13.98l-33.05,31.98v18.43
					c-6.11,3.57-4.79,15.14,4.05,15.14C882.91,1716.13,883.18,1700.85,873.59,1700z"/>
				<path class="st0" d="M861.28,1496.6c10.43,0,10.45-16.21,0-16.21c-6.39,0-8.86,6.09-7.41,10.8l-7.89,7.68
					c-1.05-0.54-2.28-0.88-3.74-0.88c-10.43,0-10.45,16.21,0,16.21c6.84,0,9.17-6.95,7.04-11.75l7.43-7.23
					C857.9,1496.07,859.41,1496.6,861.28,1496.6z"/>
				<path class="st0" d="M1020.24,1641.32l5.98-5.94c0.93,0.38,1.98,0.62,3.19,0.62c10.43,0,10.45-16.21,0-16.21
					c-7.1,0-9.36,7.51-6.79,12.31l-4.51,4.47l-16.1,0.98l-10.85,9.69c-1.24-0.97-2.85-1.59-4.87-1.59c-10.43,0-10.45,16.21,0,16.21
					c6.24,0,8.72-5.79,7.5-10.45l10.2-9.11L1020.24,1641.32z"/>
				<path class="st0" d="M1035.8,1350.54l-4.83,4.77c-2.38-1.03-5.24-0.59-7.19,1.35l-12.1,12.1c-2.54,2.54-2.54,6.67,0,9.21
					c2.52,2.52,6.61,2.55,9.16,0.05l12.23-11.97c2.02-1.97,2.46-4.92,1.36-7.34l2.95-2.92c1.29,1.78,3.34,3.02,6.22,3.02
					c2.57,0,4.5-0.99,5.81-2.48l8.27,6.71l4.91-0.14c0.91,2.99,3.36,5.43,7.42,5.43c6.48,0,8.93-6.25,7.36-10.98l7.97-7.44h2.61
					c-1.05,4.61,1.45,10.16,7.57,10.16c10.43,0,10.45-16.21,0-16.21c-1.7,0-3.09,0.46-4.24,1.18h-7.86l-8.97,8.38
					c-1.18-0.79-2.64-1.3-4.44-1.3c-4.26,0-6.75,2.71-7.53,5.91l-3.13,0.09l-7.99-6.48c0.44-4.34-2.12-9.05-7.75-9.05
					C1038.48,1342.61,1035.88,1346.55,1035.8,1350.54z"/>
				<path class="st0" d="M933.25,1433.15l12.23-11.97c2.64-2.58,2.61-6.83-0.06-9.37l-0.13-0.13c-2.56-2.44-6.6-2.39-9.1,0.11
					l-12.1,12.1c-2.54,2.54-2.54,6.67,0,9.21C926.61,1435.63,930.7,1435.65,933.25,1433.15z"/>
				<path class="st0" d="M1038.35,1369.98l-12.1,12.1c-2.54,2.54-2.54,6.67,0,9.21c2.52,2.52,6.61,2.55,9.16,0.05l12.23-11.97
					c2.64-2.58,2.61-6.83-0.06-9.37l-0.13-0.13C1044.89,1367.43,1040.85,1367.48,1038.35,1369.98z"/>
				<path class="st0" d="M1105.83,1455.52l12.23-11.97c1.65-1.61,2.25-3.87,1.82-5.96c1.06-0.96,2.08-1.89,2.88-2.66
					c0.65-0.62,1.16-1.01,1.75-1.56c0.44-0.4,0.93-0.94,1.3-1.63c0.57-1.06,0.78-2.19,0.91-3.65c0.12-1.47,0.15-3.36,0.15-6.11
					c0-2.25,0.25-3.94,0.69-5.3c0.67-2.04,1.73-3.49,3.54-5.2c1.8-1.7,4.33-3.55,7.48-6.06c0.84-0.67,1.57-1.25,2.24-1.79
					c1.09,0.6,2.38,0.99,3.92,0.99c10.43,0,10.45-16.21,0-16.21c-6.74,0-9.11,6.77-7.13,11.56c-0.63,0.5-1.3,1.04-2.07,1.65
					c-4.06,3.26-7.3,5.46-9.77,8.42c-1.22,1.48-2.21,3.17-2.84,5.14c-0.63,1.97-0.93,4.19-0.93,6.79c0.03,4.8-0.18,6.85-0.41,7.3
					c-0.1,0.22-0.08,0.21-0.41,0.53c-0.32,0.3-0.97,0.81-1.8,1.6c-0.62,0.59-1.41,1.32-2.25,2.09c-2.55-1.83-6.11-1.62-8.39,0.66
					l-12.1,12.1c-2.54,2.54-2.54,6.67,0,9.21v0C1099.19,1457.99,1103.28,1458.02,1105.83,1455.52z"/>
				<path class="st0" d="M1135.65,1481.87l12.23-11.97c1.59-1.56,2.2-3.73,1.85-5.76l32.14-30.59l3.87,4.15
					c-1.92,4.78,0.44,11.48,7.16,11.48c10.43,0,10.45-16.21,0-16.21c-1.57,0-2.87,0.4-3.97,1.02l-3.54-3.79l9.94-9.46v-65.59
					c8.29-2.01,7.62-15.95-2.07-15.95c-9.39,0-10.31,13.09-2.79,15.72l0,63.74l-43.38,41.28c-2.56-1.93-6.18-1.74-8.5,0.58
					l-12.1,12.1c-2.54,2.54-2.54,6.67,0,9.21C1129.01,1484.34,1133.1,1484.36,1135.65,1481.87z"/>
				<path class="st0" d="M1150.33,1494.43l12.23-11.97c2.64-2.58,2.61-6.83-0.06-9.37l-0.13-0.13c-2.56-2.44-6.6-2.39-9.1,0.11
					l-12.1,12.1c-2.54,2.54-2.54,6.67,0,9.21C1143.7,1496.91,1147.78,1496.93,1150.33,1494.43z"/>
				<path class="st0" d="M1116.51,1566.82c-2.56-2.44-6.6-2.39-9.1,0.11l-12.1,12.1c-1.69,1.69-2.23,4.06-1.68,6.22l-28.1,26.93
					l-5.01-5.95c0.45-4.35-2.11-9.06-7.75-9.06c-10.43,0-10.45,16.21,0,16.21c2.41,0,4.24-0.89,5.54-2.22l3.71,4.4l-10.87,10.42
					v16.38l-29.37,29.37v14.83l-28.2,28.41c-2.31,2.32-3.48,5.39-3.47,8.43c0,2.88,1.04,5.79,3.13,8.07l5.33,5.84
					c-1.96,4.79,0.4,11.52,7.14,11.52c10.43,0,10.45-16.21,0-16.21c-1.55,0-2.83,0.39-3.92,0.99l-4.95-5.43
					c-1.25-1.37-1.86-3.07-1.86-4.79c0-1.82,0.69-3.62,2.06-5.01l29.61-29.83v-14.81l29.37-29.37v-16.32l40.54-38.85
					c2.48,1.51,5.75,1.22,7.92-0.9l12.23-11.97c2.64-2.58,2.61-6.83-0.06-9.37L1116.51,1566.82z"/>
				<path class="st0" d="M1067.35,1561.61c2.52,2.52,6.61,2.55,9.16,0.05l12.23-11.97c2.64-2.58,2.61-6.83-0.06-9.37l-0.13-0.13
					c-2.56-2.44-6.6-2.39-9.1,0.11l-12.1,12.1C1064.81,1554.95,1064.81,1559.07,1067.35,1561.61z"/>
				<path class="st0" d="M1074.89,1527.63c-2.56-2.44-6.6-2.39-9.1,0.11l-12.1,12.1c-2.54,2.54-2.54,6.67,0,9.21v0
					c2.52,2.52,6.61,2.55,9.16,0.05l12.23-11.97c2.64-2.58,2.61-6.83-0.06-9.37L1074.89,1527.63z"/>
				<path class="st0" d="M999.56,1670.65l-0.13-0.13c-2.56-2.44-6.6-2.39-9.1,0.11l-12.1,12.1c-2.54,2.54-2.54,6.67,0,9.21
					c2.52,2.52,6.61,2.55,9.16,0.05l12.23-11.97C1002.26,1677.44,1002.23,1673.19,999.56,1670.65z"/>
				<path class="st0" d="M1059.28,1515.07c-2.56-2.44-6.6-2.39-9.1,0.11l-12.1,12.1c-1.78,1.78-2.29,4.33-1.57,6.57l-5.72,5.51
					l-2.13,9.92l-6.71,5.22v9.71c-3.18,1.99-4.25,6.17-3.18,9.64l-18.18,19.05l-21.1,2.5l-18.58,16.86
					c-1.12-0.66-2.46-1.08-4.08-1.08c-10.43,0-10.45,16.21,0,16.21c6.67,0,9.06-6.61,7.2-11.39l17.57-15.95l21.29-2.53l18.74-19.63
					c1.19,0.83,2.69,1.35,4.53,1.35c10.2,0,10.41-15.47,0.63-16.14v-6.22l6.23-4.84l2.19-10.2l4.39-4.23
					c2.44,1.31,5.53,0.98,7.62-1.06l12.23-11.97c2.64-2.58,2.61-6.83-0.06-9.37L1059.28,1515.07z"/>
				<path class="st0" d="M1121.36,1468.55l20.3-18.53c2.09-2.05,2.48-5.14,1.22-7.6c4.34-3.67,9.68-8.24,15.79-13.63
					c6.31-5.56,10.29-9.85,12.78-13.55c2.49-3.68,3.46-6.92,3.45-9.88c0-2.14-0.46-4.03-0.94-5.82c-0.54-2.03-1.51-3.67-2.55-5.03
					c-1.57-2.04-3.24-3.53-4.38-5.11c-1.13-1.6-1.86-3.14-1.89-5.8c0-1.13,0-2.13,0-3.05c7.89-2.33,7.12-15.83-2.43-15.83
					c-9.53,0-10.34,13.51-2.43,15.83c0,0.92,0,1.92,0,3.05c-0.01,2.46,0.54,4.56,1.39,6.3c1.28,2.62,3.11,4.38,4.55,5.99
					c1.46,1.62,2.54,3.01,3.04,4.9c0.46,1.72,0.78,3.16,0.78,4.58c-0.02,1.93-0.52,4.01-2.62,7.17c-2.1,3.14-5.82,7.21-11.96,12.62
					c-6.33,5.57-11.82,10.28-16.23,13.99c-2.32-0.86-5.01-0.36-6.87,1.5l-20.16,18.66c-2.54,2.54-2.54,6.67,0,9.21
					C1114.72,1471.03,1118.8,1471.05,1121.36,1468.55z"/>
				<path class="st0" d="M1005.01,1331.55l-0.13-0.13c-2.56-2.44-6.6-2.39-9.1,0.11l-12.1,12.1c-2.54,2.54-2.54,6.67,0,9.21
					c2.52,2.52,6.61,2.55,9.16,0.05l12.23-11.97C1007.71,1338.35,1007.68,1334.09,1005.01,1331.55z"/>
				<path class="st0" d="M979.03,1338.59l12.23-11.97c1.91-1.87,2.4-4.61,1.52-6.95c0.07-0.05,0.15-0.11,0.22-0.16
					c1.71-1.18,3.3-1.78,4.26-1.75c1.02,0,1.93,0,2.78,0c-0.04,4.08,2.56,8.19,7.82,8.19c10.43,0,10.45-16.21,0-16.21
					c-2.94,0-5.02,1.31-6.3,3.16c-1.21,0-2.61,0-4.29,0c-2.74,0.03-5.16,1.3-7.43,2.89c-0.11,0.08-0.22,0.18-0.33,0.26
					c-2.45-1.24-5.5-0.86-7.53,1.18l-12.1,12.1c-2.54,2.54-2.54,6.67,0,9.21C972.4,1341.06,976.48,1341.09,979.03,1338.59z"/>
			</g>
		</g>
		<path class="st0" d="M1482.84,1342.61l32.34,12.15c0,0-180,358.66-513.6,475.07c-301.73-116.96-481.27-398.69-509.29-468.81
			c26.95-11.91,26.95-11.91,26.95-11.91s170.3,327.67,482.34,448.39C1209.07,1702.63,1373.98,1561.4,1482.84,1342.61z"/>
		<g>
			<polygon points="124.74,970.23 128.51,1010.11 304.74,990.17 298.81,944.36 			"/>
			<polygon points="192.1,982.62 214.74,1177.18 262.7,1171.79 241.68,982.62 			"/>
			<polygon points="304.74,944.36 327.37,1162.63 475.04,1147.54 472.08,1103.61 370.22,1114.39 358.09,982.62 459.41,971.57 
				456.45,927.65 			"/>
			<polygon points="352.43,1025.47 450.25,1017.65 452.41,1061.84 349.2,1071.01 			"/>
			<polygon points="475.04,1147.54 526.78,1144.3 583.91,1010.11 660.07,1132.8 713.25,1128.49 576.72,911.84 			"/>
			<polygon points="523.55,1109.81 656.84,1101.91 634.21,1068.13 533.25,1071.01 			"/>
			<polygon points="713.25,1128.49 760.32,1128.49 757.8,1033.64 835.77,1120.59 907.98,1027.89 910.86,1122.03 957.56,1122.74 
				953.97,897.83 832.53,1045.14 702.83,905.73 			"/>
			<polygon points="1027.99,1121.67 1083.67,1121.67 1149.42,997.05 1216.25,1125.62 1270.15,1128.49 1151.58,897.83 			"/>
			<polygon points="1086.19,1093.64 1215.53,1093.64 1190.38,1056.99 1095.17,1059.51 			"/>
			<path d="M1251.82,907.89h49.22l-3.9,132.27c-0.82,27.94,21.18,51.25,49.12,52.04h0c28.12,0.79,51.48-21.51,51.99-49.64
				l2.31-128.2l49.58,4.31l-7.22,130.33c-2.78,50.18-45.13,88.96-95.36,87.31l-8.67-0.28c-50.49-1.66-90.31-43.53-89.43-94.04
				L1251.82,907.89z"/>
			<path d="M1511.95,968.61l-10.42,174.61l-45.99-3.23l10.42-218.45c0,0,57.13,4.67,88.03,7.55c30.9,2.87,80.84,31.98,75.81,74.01
				c-5.03,42.04-27.67,56.77-50.3,60l60,92.7l-56.77-4.31l-81.92-126.47l53.15,2.32c16,0.7,29.46-11.87,29.86-27.88v0
				c0.39-15.69-11.93-28.77-27.62-29.32L1511.95,968.61z"/>
			<polygon points="1631.86,1155.22 1680.45,1161.55 1760.21,1046.93 1815.54,1182.03 1868.72,1188.49 1770.27,945.97 			"/>
			<polygon points="1686.56,1133.88 1818.06,1149.33 1796.14,1108.73 1704.88,1099.39 			"/>
		</g>
	</g>
</g>
</svg>
